<svg width="191" height="31" viewBox="0 0 191 31" fill="none" xmlns="http://www.w3.org/2000/svg">
<path fill-rule="evenodd" clip-rule="evenodd" d="M178.683 11.2188C178.402 11.6723 178.176 12.2074 178.005 12.8241L177.646 14.1193L182.981 15.598L183.195 14.827C183.286 14.4981 183.42 14.2143 183.597 13.9755C183.794 13.7424 184.064 13.5293 184.405 13.3361C184.773 13.1281 185.249 12.928 185.833 12.7358C186.809 12.4086 187.611 12.0331 188.237 11.609C188.89 11.1702 189.411 10.6503 189.799 10.0494C190.207 9.45422 190.52 8.76602 190.736 7.9848C191.192 6.34014 190.953 4.84604 190.019 3.50249C189.086 2.15895 187.509 1.17948 185.288 0.564081C183.808 0.153816 182.377 -0.032655 180.994 0.00466849C179.617 0.0214339 178.272 0.202051 176.958 0.546519L178.042 5.26329C179.197 5.00798 180.234 4.86351 181.151 4.82988C182.088 4.80194 182.865 4.87345 183.482 5.04439C183.955 5.17545 184.309 5.41734 184.543 5.77007C184.803 6.10794 184.865 6.52357 184.729 7.01697C184.637 7.3459 184.5 7.64003 184.318 7.89936C184.141 8.13812 183.872 8.35125 183.51 8.53873C183.148 8.72622 182.651 8.92063 182.02 9.12197C181.149 9.38968 180.445 9.69269 179.908 10.031C179.392 10.375 178.984 10.7709 178.683 11.2188ZM177.302 17.2781C176.545 17.5332 176.018 18.1953 175.722 19.2643C175.443 20.2717 175.559 21.0898 176.071 21.7187C176.604 22.3533 177.312 22.7932 178.196 23.0382C179.08 23.2832 179.893 23.265 180.635 22.9837C181.398 22.7081 181.919 22.0666 182.198 21.0592C182.494 19.9902 182.384 19.1515 181.866 18.5431C181.369 17.9405 180.678 17.5166 179.794 17.2716C178.91 17.0266 178.079 17.0288 177.302 17.2781ZM3.392 19.304H23.616V30.056H19.328V22.664H3.392V19.304ZM19.328 0.423958H23.616V17.96H19.328V10.888H14.016V16.36H0V2.56796H14.016V7.46396H19.328V0.423958ZM9.856 5.89596H4.192V13.032H9.856V5.89596ZM41.6615 0.807957C45.0322 0.807957 47.6562 1.24529 49.5335 2.11996C51.4322 2.99462 52.3815 4.25329 52.3815 5.89596C52.3815 7.51729 51.4322 8.76529 49.5335 9.63996C47.6562 10.5146 45.0322 10.952 41.6615 10.952C38.2695 10.952 35.6242 10.5146 33.7255 9.63996C31.8482 8.76529 30.9095 7.51729 30.9095 5.89596C30.9095 4.25329 31.8482 2.99462 33.7255 2.11996C35.6242 1.24529 38.2695 0.807957 41.6615 0.807957ZM41.6295 3.94396C40.2215 3.94396 39.0482 4.01862 38.1095 4.16796C37.1708 4.29596 36.4668 4.50929 35.9975 4.80796C35.5495 5.08529 35.3255 5.44796 35.3255 5.89596C35.3255 6.34396 35.5495 6.71729 35.9975 7.01596C36.4668 7.29329 37.1708 7.49596 38.1095 7.62396C39.0482 7.75196 40.2215 7.81596 41.6295 7.81596C43.0588 7.81596 44.2428 7.75196 45.1815 7.62396C46.1202 7.49596 46.8135 7.29329 47.2615 7.01596C47.7095 6.71729 47.9335 6.34396 47.9335 5.89596C47.9335 5.44796 47.7095 5.08529 47.2615 4.80796C46.8135 4.50929 46.1202 4.29596 45.1815 4.16796C44.2428 4.01862 43.0588 3.94396 41.6295 3.94396ZM55.0375 12.328V15.688H28.2215V12.328H55.0375ZM31.2935 17.352H51.7735V24.936H35.5495V26.632H52.5735V29.864H31.3255V27.56V26.632V21.992H47.5815V20.488H31.2935V17.352ZM76.987 0.391957H81.243V11.976H85.083V15.496H81.243V30.024H76.987V0.391957ZM64.091 3.43196H66.395C66.395 5.47996 66.3203 7.42129 66.171 9.25596C66.043 11.0906 65.7763 12.84 65.371 14.504C64.9657 16.168 64.3577 17.7786 63.547 19.336C62.7577 20.872 61.7123 22.376 60.411 23.848L57.083 21.416C58.2137 20.1573 59.131 18.888 59.835 17.608C60.539 16.328 61.083 14.9946 61.467 13.608C61.851 12.2213 62.107 10.7386 62.235 9.15996C62.2939 8.42359 62.3393 7.65559 62.3711 6.85596H58.395V3.43196H62.427H64.091ZM72.347 3.43196H74.587C74.587 5.56529 74.5123 7.63462 74.363 9.63996C74.235 11.624 73.9683 13.544 73.563 15.4C73.1577 17.2346 72.571 19.016 71.803 20.744C71.035 22.4506 70.0003 24.104 68.699 25.704L65.371 23.368C66.5017 21.9386 67.4083 20.4986 68.091 19.048C68.7737 17.5973 69.2963 16.0933 69.659 14.536C70.0217 12.9786 70.267 11.3253 70.395 9.57596C70.4586 8.70621 70.5065 7.79954 70.5385 6.85596H67.419V3.43196H70.587H72.347ZM113.981 0.423958H118.237V6.08796H122.141V9.54396H118.237V15.208H113.981V0.423958ZM95.773 1.79996H109.917V14.12H95.773V1.79996ZM105.725 5.09596H99.965V10.76H105.725V5.09596ZM98.685 16.36H118.237V24.488H102.941V26.408H119.101V29.736H98.717V28.04V26.408V21.416H114.045V19.656H98.685V16.36ZM143.674 0.391957H147.93V11.976H151.771V15.496H147.93V30.024H143.674V0.391957ZM130.779 3.43196H133.083C133.083 5.47996 133.008 7.42129 132.859 9.25596C132.73 11.0906 132.464 12.84 132.059 14.504C131.653 16.168 131.045 17.7786 130.234 19.336C129.445 20.872 128.4 22.376 127.099 23.848L123.771 21.416C124.901 20.1573 125.818 18.888 126.522 17.608C127.227 16.328 127.771 14.9946 128.154 13.608C128.538 12.2213 128.794 10.7386 128.923 9.15996C128.981 8.42359 129.027 7.65559 129.059 6.85596H125.082V3.43196H129.115H130.779ZM139.035 3.43196H141.275C141.275 5.56529 141.2 7.63462 141.051 9.63996C140.923 11.624 140.656 13.544 140.251 15.4C139.845 17.2346 139.258 19.016 138.49 20.744C137.723 22.4506 136.688 24.104 135.387 25.704L132.059 23.368C133.189 21.9386 134.096 20.4986 134.779 19.048C135.461 17.5973 135.984 16.0933 136.346 14.536C136.709 12.9786 136.954 11.3253 137.083 9.57596C137.146 8.70621 137.194 7.79954 137.226 6.85596H134.107V3.43196H137.275H139.035ZM161.791 17.6901C161.741 17.0521 161.77 16.472 161.878 15.9498C162.007 15.4259 162.256 14.9139 162.622 14.414C163.011 13.9123 163.568 13.3865 164.295 12.8366C164.819 12.4311 165.219 12.0783 165.495 11.7782C165.77 11.4781 165.951 11.1855 166.035 10.9006C166.118 10.5945 166.145 10.2712 166.118 9.93097C166.078 9.42058 165.877 9.05131 165.517 8.82315C165.176 8.57204 164.761 8.46591 164.272 8.50478C163.634 8.55548 162.879 8.75454 162.008 9.10198C161.158 9.44773 160.234 9.93846 159.236 10.5742L156.602 6.51407C157.717 5.74061 158.919 5.11009 160.207 4.62253C161.494 4.11369 162.902 3.79844 164.434 3.67677C166.73 3.49426 168.548 3.87418 169.885 4.81653C171.223 5.75887 171.959 7.0807 172.094 8.782C172.158 9.59012 172.101 10.3437 171.921 11.0428C171.762 11.7403 171.451 12.407 170.988 13.043C170.545 13.6561 169.92 14.2835 169.115 14.9253C168.632 15.3061 168.253 15.6572 167.979 15.9786C167.725 16.277 167.545 16.5695 167.439 16.8561C167.355 17.141 167.326 17.4536 167.353 17.7939L167.416 18.5914L161.898 19.0299L161.791 17.6901ZM161.853 24.5227C161.765 23.4169 162.033 22.6145 162.657 22.1155C163.302 21.6148 164.081 21.3281 164.996 21.2555C165.91 21.1828 166.704 21.3444 167.378 21.7403C168.073 22.1345 168.464 22.8846 168.552 23.9904C168.635 25.0324 168.365 25.8136 167.743 26.3338C167.142 26.8524 166.384 27.148 165.47 27.2207C164.555 27.2933 163.739 27.1228 163.022 26.709C162.325 26.2935 161.936 25.5648 161.853 24.5227Z" fill="black"/>
</svg>
