<svg width="30" height="30" viewBox="0 0 30 30" fill="none" xmlns="http://www.w3.org/2000/svg">
<path opacity="0.16" d="M15 28C22.1797 28 28 22.1797 28 15C28 7.8203 22.1797 2 15 2C7.8203 2 2 7.8203 2 15C2 22.1797 7.8203 28 15 28Z" fill="black"/>
<path d="M15 28C22.1797 28 28 22.1797 28 15C28 7.8203 22.1797 2 15 2C7.8203 2 2 7.8203 2 15C2 22.1797 7.8203 28 15 28Z" stroke="black" stroke-width="2" stroke-linecap="round" stroke-linejoin="round"/>
<path d="M11.3889 11.3889C11.389 10.7951 11.5356 10.2105 11.8156 9.68688C12.0956 9.16324 12.5004 8.71672 12.9941 8.38687C13.4879 8.05703 14.0554 7.85403 14.6463 7.79587C15.2373 7.73771 15.8334 7.82617 16.382 8.05342C16.9306 8.28067 17.4147 8.63971 17.7914 9.09872C18.1681 9.55773 18.4258 10.1026 18.5417 10.6849C18.6576 11.2673 18.6281 11.8693 18.4557 12.4375C18.2834 13.0058 17.9736 13.5228 17.5538 13.9427L12.023 19.4721C11.6171 19.8782 11.389 20.4289 11.3889 21.0032V22.2223H18.6111" stroke="black" stroke-width="2" stroke-linecap="round" stroke-linejoin="round"/>
</svg>
