<svg width="30" height="30" viewBox="0 0 30 30" fill="none" xmlns="http://www.w3.org/2000/svg">
<path opacity="0.16" d="M15 28C22.1797 28 28 22.1797 28 15C28 7.8203 22.1797 2 15 2C7.8203 2 2 7.8203 2 15C2 22.1797 7.8203 28 15 28Z" fill="black"/>
<path d="M15 28C22.1797 28 28 22.1797 28 15C28 7.8203 22.1797 2 15 2C7.8203 2 2 7.8203 2 15C2 22.1797 7.8203 28 15 28Z" stroke="black" stroke-width="2" stroke-linecap="round" stroke-linejoin="round"/>
<path d="M12.1111 21.1187C12.6346 21.587 13.2642 21.921 13.9455 22.0919C14.6268 22.2629 15.3394 22.2656 16.0221 22.1C16.7047 21.9343 17.3368 21.6052 17.8639 21.141C18.3911 20.6767 18.7975 20.0913 19.0482 19.4351C19.2988 18.7789 19.3862 18.0717 19.3027 17.3742C19.2193 16.6767 18.9676 16.01 18.5692 15.4315C18.1709 14.8529 17.6379 14.3799 17.0161 14.0531C16.3943 13.7263 15.7024 13.5555 15 13.5555L19.3333 7.77777H12.1111" stroke="black" stroke-width="2" stroke-linecap="round" stroke-linejoin="round"/>
</svg>
